<?xml version="1.0" standalone="no"?>
<!DOCTYPE svg PUBLIC "-//W3C//DTD SVG 20010904//EN"
 "http://www.w3.org/TR/2001/REC-SVG-20010904/DTD/svg10.dtd">
<svg version="1.0" xmlns="http://www.w3.org/2000/svg"
 width="48.000000pt" height="48.000000pt" viewBox="0 0 48.000000 48.000000"
 preserveAspectRatio="xMidYMid meet">

<g transform="translate(0.000000,48.000000) scale(0.100000,-0.100000)"
fill="#000000" stroke="none">
<path d="M250 309 c0 -41 -16 -69 -41 -69 -19 0 -21 5 -17 45 4 52 -16 63 -26
15 -12 -63 26 -104 71 -75 39 26 61 115 28 115 -10 0 -15 -10 -15 -31z"/>
<path d="M316 324 c-11 -30 -6 -91 9 -104 22 -19 63 -4 80 30 20 40 20 90 -1
90 -10 0 -14 -6 -11 -14 15 -38 -26 -107 -54 -90 -12 7 -11 61 1 85 8 15 7 19
-4 19 -7 0 -17 -7 -20 -16z"/>
<path d="M90 288 c-6 -24 -15 -59 -20 -78 -10 -36 2 -63 19 -44 7 7 41 138 41
158 0 4 -7 6 -15 6 -8 0 -19 -17 -25 -42z"/>
<path d="M195 173 c-30 -8 -47 -25 -36 -36 6 -6 27 -3 59 7 27 9 80 17 118 18
48 1 61 3 44 8 -28 9 -154 10 -185 3z"/>
<path d="M275 123 c-29 -7 -41 -21 -28 -34 8 -8 17 -7 34 2 13 7 44 18 69 25
l45 12 -50 0 c-27 0 -59 -2 -70 -5z"/>
</g>
</svg>
